<?xml version="1.0" standalone="no"?>
<!DOCTYPE svg PUBLIC "-//W3C//DTD SVG 20010904//EN"
 "http://www.w3.org/TR/2001/REC-SVG-20010904/DTD/svg10.dtd">
<svg version="1.0" xmlns="http://www.w3.org/2000/svg"
 width="700.000000pt" height="700.000000pt" viewBox="0 0 700.000000 700.000000"
 preserveAspectRatio="xMidYMid meet">
<metadata>
Created by potrace 1.11, written by Peter Selinger 2001-2013
</metadata>
<g transform="translate(0.000000,700.000000) scale(0.100000,-0.100000)"
fill="#000000" stroke="none">
<path d="M3645 6917 c-74 -25 -122 -56 -173 -111 -137 -151 -128 -369 23 -518
l43 -43 -31 -80 -32 -80 -60 -1 c-63 -1 -183 -11 -225 -19 -14 -2 -41 -6 -60
-9 -19 -3 -59 -10 -89 -16 -29 -5 -59 -10 -66 -10 -7 0 -62 72 -124 160 l-111
160 39 57 c48 72 64 121 63 192 -2 144 -102 266 -245 302 -86 21 -103 17 -499
-135 -155 -59 -215 -104 -259 -193 -78 -160 -11 -345 151 -421 43 -20 71 -26
128 -27 55 0 73 -3 76 -15 5 -16 12 -61 21 -125 4 -22 11 -69 16 -105 24 -152
31 -130 -63 -190 -140 -91 -275 -199 -404 -326 l-63 -61 -114 49 -115 49 -1
56 c-1 77 -25 143 -73 198 -107 122 -296 139 -418 38 -55 -45 -243 -295 -270
-358 -30 -69 -23 -184 15 -254 50 -91 129 -145 234 -159 63 -9 139 7 191 40
25 16 25 16 102 -76 l77 -92 -44 -85 c-100 -193 -201 -498 -230 -694 -3 -22
-9 -43 -13 -47 -4 -4 -65 -21 -137 -38 -71 -17 -157 -37 -189 -45 -62 -15 -86
-9 -86 22 0 24 -101 117 -155 143 -40 19 -67 24 -135 24 -73 1 -93 -3 -141
-27 -69 -33 -132 -99 -167 -175 l-27 -57 0 -280 0 -280 28 -53 c82 -156 247
-224 409 -170 83 28 177 118 204 196 22 60 -1 59 199 12 66 -16 131 -31 145
-33 50 -10 58 -18 66 -65 4 -26 8 -49 9 -52 1 -3 5 -21 9 -40 16 -65 54 -100
111 -100 17 0 25 -6 25 -17 0 -10 14 -60 31 -110 l31 -93 -29 -24 c-43 -37
-38 -89 19 -203 l47 -92 -37 -44 c-20 -24 -75 -87 -121 -139 l-84 -95 -46 21
c-66 30 -197 29 -262 -3 -173 -83 -241 -275 -161 -451 9 -19 18 -37 21 -40 4
-3 33 -45 66 -94 115 -171 196 -228 330 -233 185 -6 334 136 337 321 1 30 6
57 12 60 133 53 297 121 318 131 24 12 29 11 51 -14 32 -35 141 -136 201 -186
56 -47 224 -168 246 -178 8 -4 47 -26 85 -51 47 -29 69 -50 68 -62 -6 -65 -15
-148 -17 -162 -2 -9 -7 -53 -11 -97 -5 -44 -9 -84 -10 -90 -1 -5 -3 -24 -3
-41 -2 -29 -4 -30 -48 -33 -51 -2 -131 -31 -178 -63 -163 -113 -202 -336 -87
-501 54 -78 97 -105 276 -171 66 -24 165 -61 220 -82 165 -62 272 -57 363 16
51 40 79 93 99 182 38 173 14 293 -77 392 l-38 41 39 59 c21 32 39 60 39 62 0
4 149 235 159 247 4 4 29 3 57 -2 278 -52 662 -41 956 28 l38 9 97 -137 c53
-75 106 -148 116 -163 l20 -27 -30 -38 c-53 -69 -68 -111 -68 -198 0 -68 4
-89 28 -137 35 -71 101 -130 176 -159 98 -37 158 -26 416 79 269 109 271 110
322 165 49 53 62 76 79 139 18 71 10 142 -26 215 -56 113 -162 177 -290 172
l-65 -3 -27 160 c-15 87 -29 173 -31 191 -4 30 0 34 92 96 123 84 234 174 340
276 47 45 86 81 88 81 9 0 219 -93 227 -100 5 -5 10 -32 12 -60 8 -111 95
-235 203 -287 49 -24 68 -27 151 -27 83 0 102 3 150 27 69 34 111 73 182 167
81 107 100 157 100 257 0 70 -4 90 -30 145 -82 171 -271 253 -443 193 -23 -9
-45 -12 -48 -7 -3 5 -39 47 -80 95 -58 69 -71 90 -62 101 18 22 105 204 141
296 18 47 35 87 36 89 4 4 31 6 256 16 l147 6 10 -38 c14 -53 62 -125 103
-156 164 -126 387 -76 479 106 18 34 39 119 64 257 3 14 7 36 10 50 49 226 52
314 16 390 -82 174 -287 235 -455 136 -44 -26 -100 -89 -119 -135 l-12 -28
-85 37 c-47 20 -128 56 -180 79 l-95 41 0 92 c-1 114 -12 261 -25 348 -17 106
-20 118 -35 183 -8 34 -15 65 -15 69 0 4 35 30 77 59 l77 51 70 -38 c69 -38
74 -39 171 -39 91 0 105 3 158 30 148 74 228 243 192 400 -20 83 -103 294
-135 340 -40 57 -83 93 -155 126 -52 23 -71 27 -145 25 -98 -2 -165 -27 -237
-90 -51 -45 -104 -148 -111 -215 -5 -55 5 -50 -139 -67 l-52 -6 -23 42 c-53
97 -69 117 -108 134 -23 9 -43 11 -64 5 -16 -5 -30 -8 -31 -6 -1 1 -31 41 -68
89 -65 85 -66 88 -52 115 21 40 18 75 -9 115 -21 31 -22 38 -10 59 8 13 32 65
55 114 107 238 100 225 128 217 61 -17 155 -6 217 26 166 85 219 284 120 446
-40 66 -415 366 -494 396 -57 22 -145 26 -202 10 -57 -16 -126 -65 -164 -117
-77 -106 -81 -243 -11 -355 l33 -51 -52 -42 c-28 -23 -96 -78 -150 -122 l-99
-80 -81 42 c-137 71 -369 159 -514 195 -19 5 -35 10 -37 12 -2 2 -7 37 -10 78
-3 41 -8 82 -11 91 -2 9 17 33 51 63 175 151 187 386 28 549 -42 43 -131 92
-184 101 -19 3 -47 8 -64 12 -72 13 -231 14 -270 1z"/>
</g>
</svg>
