<?xml version="1.0" standalone="no"?>
<!DOCTYPE svg PUBLIC "-//W3C//DTD SVG 20010904//EN"
 "http://www.w3.org/TR/2001/REC-SVG-20010904/DTD/svg10.dtd">
<svg version="1.0" xmlns="http://www.w3.org/2000/svg"
 width="700.000000pt" height="700.000000pt" viewBox="0 0 700.000000 700.000000"
 preserveAspectRatio="xMidYMid meet">
<metadata>
Created by potrace 1.11, written by Peter Selinger 2001-2013
</metadata>
<g transform="translate(0.000000,700.000000) scale(0.100000,-0.100000)"
fill="#000000" stroke="none">
<path d="M5064 6988 c-43 -20 -57 -95 -26 -135 38 -50 129 -43 153 11 37 80
-48 163 -127 124z"/>
<path d="M5836 6837 c-24 -69 -105 -149 -175 -174 -51 -18 -66 -33 -33 -33 33
-1 102 -39 142 -80 34 -35 64 -85 83 -140 3 -10 8 -6 16 15 41 103 103 168
191 199 l53 19 -46 17 c-64 25 -108 54 -138 92 -32 41 -59 92 -59 112 0 35
-17 21 -34 -27z"/>
<path d="M1345 6500 c-75 -17 -142 -77 -166 -147 -7 -21 -13 -87 -14 -148 -1
-60 -3 -112 -4 -115 0 -3 -43 -5 -93 -5 -129 1 -190 -9 -256 -41 -100 -49
-188 -161 -208 -264 -4 -19 -7 -1104 -8 -2410 -1 -1902 1 -2387 11 -2433 31
-140 121 -239 259 -286 58 -20 80 -20 1673 -20 888 0 1617 -4 1621 -8 3 -5 26
-35 51 -67 180 -241 460 -424 764 -500 174 -44 390 -51 560 -20 336 62 624
230 834 488 343 420 409 987 172 1471 -99 202 -238 372 -408 498 l-83 61 -1
1591 c0 874 -3 1603 -5 1618 -18 108 -101 221 -201 274 -71 37 -117 46 -250
47 -56 1 -104 4 -108 8 -4 3 -8 57 -9 120 -3 124 -10 149 -55 201 -107 121
-304 92 -371 -55 -16 -34 -20 -66 -20 -155 0 -62 -3 -114 -7 -114 -43 -7 -313
-2 -314 6 0 5 -2 62 -3 125 -2 83 -7 125 -19 150 -87 181 -337 175 -415 -9
-10 -25 -15 -74 -16 -156 l-2 -120 -149 -1 c-83 0 -155 1 -161 3 -6 2 -11 47
-11 117 -1 101 -4 118 -27 165 -62 122 -228 158 -336 73 -19 -16 -47 -51 -61
-80 -22 -46 -25 -64 -25 -158 1 -60 -3 -109 -9 -113 -5 -4 -77 -7 -160 -7
l-150 1 -1 97 c-1 54 -4 116 -8 138 -13 85 -86 159 -171 177 -45 10 -45 10
-100 -1 -56 -10 -112 -52 -143 -105 -24 -42 -27 -56 -30 -176 l-4 -130 -158 0
-158 0 -4 126 c-3 117 -6 129 -30 167 -85 128 -247 148 -354 44 -48 -45 -64
-101 -67 -227 l-2 -110 -157 0 c-101 0 -158 3 -159 10 -1 5 -2 62 -4 125 -3
129 -14 167 -67 216 -59 56 -135 80 -203 64z"/>
<path d="M338 4984 c-52 -28 -64 -94 -25 -139 28 -32 68 -40 107 -20 71 37 68
130 -5 161 -42 17 -43 17 -77 -2z"/>
<path d="M6527 2938 c-15 -59 -68 -111 -142 -139 l-30 -11 30 -10 c45 -15 95
-56 119 -97 11 -20 21 -39 21 -43 0 -23 15 -12 30 23 22 49 85 105 128 115
l32 7 -49 23 c-65 31 -81 47 -110 107 -21 45 -24 47 -29 25z"/>
<path d="M2377 463 c-24 -6 -47 -55 -47 -101 0 -38 -1 -40 -32 -39 -59 1 -85
-11 -102 -48 -32 -67 10 -125 90 -125 43 0 44 -1 45 -32 1 -56 7 -72 34 -95
64 -55 144 -2 140 91 -2 34 -2 34 50 38 75 6 109 46 93 105 -11 42 -43 62 -99
66 -41 2 -44 4 -45 32 -2 60 -4 66 -29 90 -23 24 -54 30 -98 18z"/>
<path d="M1605 451 c-78 -32 -76 -142 4 -172 51 -20 121 30 121 86 0 29 -28
71 -55 83 -30 14 -42 14 -70 3z"/>
</g>
</svg>
